# xmcd CD database file
#
# Track frame offsets:
#	150
#	9443
#	22216
#	33656
#	45453
#	57491
#	66234
#	76810
#	87513
#	100199
#	112414
#	128615
#	138299
#	152555
#	163846
#	175011
#	187760
#	198383
#	211187
#	225987
#
# Disc length: 3211 seconds
#
# Revision: 7
# Processed by: cddbd v1.5.2PL0 Copyright (c) Steve Scherf et al.
# Submitted via: CDex 1.51
#
DISCID=070c8914
DTITLE=Benny Goodman - Vol.04 - I Had To Do It
DYEAR=1900
DGENRE=Jazz
TTITLE0=I know That You Know
TTITLE1=Stardust
TTITLE2=You Can't Pull The Wool Over My Eyes
TTITLE3=The Glory Of Love
TTITLE4=Remember
TTITLE5=Walk, Jennie, Walk
TTITLE6=House Hop
TTITLE7=Sing Me A Swing Song  (And Let Me Dance)
TTITLE8=(I Would Do)  Anything For You
TTITLE9=These Foolidh Things Remind Me Of You
TTITLE10=In A Sentimental Mood
TTITLE11=I've Found A New Baby
TTITLE12=Swingtime In The Rockies
TTITLE13=House Hop
TTITLE14=There's A Small Hotel
TTITLE15=You Turned The Tables On Me
TTITLE16=Here's Love In Your Eyes
TTITLE17=Pick Yourself Up
TTITLE18=Down South Camp Meeting
TTITLE19=St. Louis Blues
EXTD=
EXTT0=
EXTT1=
EXTT2=
EXTT3=
EXTT4=
EXTT5=
EXTT6=
EXTT7=
EXTT8=
EXTT9=
EXTT10=
EXTT11=
EXTT12=
EXTT13=
EXTT14=
EXTT15=
EXTT16=
EXTT17=
EXTT18=
EXTT19=
PLAYORDER=
